<svg t="1649669214863" class="icon" viewBox="0 0 1024 1024" version="1.1" xmlns="http://www.w3.org/2000/svg" p-id="36880" width="200" height="200"><path d="M853.333333 42.666667H170.666667a128 128 0 0 0-128 128v682.666666a128 128 0 0 0 128 128h682.666666a128 128 0 0 0 128-128V170.666667a128 128 0 0 0-128-128z m42.666667 810.666666a42.666667 42.666667 0 0 1-42.666667 42.666667H170.666667a42.666667 42.666667 0 0 1-42.666667-42.666667V170.666667a42.666667 42.666667 0 0 1 42.666667-42.666667h682.666666a42.666667 42.666667 0 0 1 42.666667 42.666667v682.666666z m-213.333333-384h-128V341.333333a42.666667 42.666667 0 0 0-85.333334 0v128H341.333333a42.666667 42.666667 0 0 0 0 85.333334h128v128a42.666667 42.666667 0 0 0 85.333334 0v-128h128a42.666667 42.666667 0 0 0 0-85.333334z" p-id="36881"></path></svg>