<?xml version="1.0" standalone="no"?><!DOCTYPE svg PUBLIC "-//W3C//DTD SVG 1.1//EN" "http://www.w3.org/Graphics/SVG/1.1/DTD/svg11.dtd"><svg t="1662361422298" class="icon" viewBox="0 0 1024 1024" version="1.1" xmlns="http://www.w3.org/2000/svg" p-id="14610" xmlns:xlink="http://www.w3.org/1999/xlink" width="200" height="200"><path d="M268.586667 213.333333c23.466667 0 42.666667 19.2 42.666666 42.666667v384h76.373334c19.2 0 28.586667 23.04 14.933333 36.266667l-119.04 119.04c-8.533333 8.533333-21.76 8.533333-30.293333 0l-119.04-119.04a21.333333 21.333333 0 0 1 15.36-36.266667h76.373333V256c0-23.466667 19.2-42.666667 42.666667-42.666667zM810.666667 640c23.466667 0 42.666667 19.2 42.666666 42.666667s-19.2 42.666667-42.666666 42.666666h-256c-23.466667 0-42.666667-19.2-42.666667-42.666666s19.2-42.666667 42.666667-42.666667z m0-170.666667c23.466667 0 42.666667 19.2 42.666666 42.666667s-19.2 42.666667-42.666666 42.666667h-384c-23.466667 0-42.666667-19.2-42.666667-42.666667s19.2-42.666667 42.666667-42.666667z m0-170.666666c23.466667 0 42.666667 19.2 42.666666 42.666666s-19.2 42.666667-42.666666 42.666667h-384c-23.466667 0-42.666667-19.2-42.666667-42.666667s19.2-42.666667 42.666667-42.666666z" p-id="14611"></path></svg>