<?xml version="1.0" standalone="no"?><!DOCTYPE svg PUBLIC "-//W3C//DTD SVG 1.1//EN" "http://www.w3.org/Graphics/SVG/1.1/DTD/svg11.dtd"><svg t="1661766340031" class="icon" viewBox="0 0 1024 1024" version="1.1" xmlns="http://www.w3.org/2000/svg" p-id="23406" xmlns:xlink="http://www.w3.org/1999/xlink" width="200" height="200"><path d="M512 816.213333c-23.466667 0-42.666667-19.2-42.666667-42.666666V250.88c0-23.466667 19.2-42.666667 42.666667-42.666667s42.666667 19.2 42.666667 42.666667v522.666667c0 23.466667-19.2 42.666667-42.666667 42.666666zM341.333333 597.333333c-23.466667 0-42.666667-19.2-42.666666-42.666666v-85.333334c0-23.466667 19.2-42.666667 42.666666-42.666666s42.666667 19.2 42.666667 42.666666v85.333334c0 23.466667-19.2 42.666667-42.666667 42.666666zM853.333333 640c-23.466667 0-42.666667-19.2-42.666666-42.666667v-170.666666c0-23.466667 19.2-42.666667 42.666666-42.666667s42.666667 19.2 42.666667 42.666667v170.666666c0 23.466667-19.2 42.666667-42.666667 42.666667zM170.666667 682.666667c-23.466667 0-42.666667-19.2-42.666667-42.666667V384c0-23.466667 19.2-42.666667 42.666667-42.666667s42.666667 19.2 42.666666 42.666667v256c0 23.466667-19.2 42.666667-42.666666 42.666667zM682.666667 727.893333c-23.466667 0-42.666667-19.2-42.666667-42.666666V338.773333c0-23.466667 19.2-42.666667 42.666667-42.666666s42.666667 19.2 42.666666 42.666666v346.88a42.666667 42.666667 0 0 1-42.666666 42.24z" p-id="23407"></path></svg>