<svg t="1649667926836" class="icon" viewBox="0 0 1024 1024" version="1.1" xmlns="http://www.w3.org/2000/svg" p-id="23179" width="200" height="200"><path d="M291.9866 424.960856a54.930207 54.930207 0 1 0 0 109.933557 54.930207 54.930207 0 0 0 0-109.933557z m440.0268 0a54.930207 54.930207 0 1 0-0.073143 109.933557 54.930207 54.930207 0 0 0 0-109.933557zM512 424.960856a54.930207 54.930207 0 1 0 0 109.933557 54.930207 54.930207 0 0 0 0-109.933557z" fill="currentColor" p-id="23180"></path><path d="M983.331898 291.841046a476.15932 476.15932 0 0 0-110.299271-152.356354A513.315838 513.315838 0 0 0 710.509431 37.304267 540.817513 540.817513 0 0 0 512 0.001463c-68.754187 0-135.606663 12.580553-198.509431 37.302804a513.315838 513.315838 0 0 0-162.523196 102.180425A478.134174 478.134174 0 0 0 40.668102 291.841046 451.583355 451.583355 0 0 0 0.000731 479.379064C0.000731 596.261182 45.12981 708.023309 127.269121 795.648326l23.039967 196.534577a35.839949 35.839949 0 0 0 35.693663 31.817097 36.425091 36.425091 0 0 0 17.846832-4.681136l148.26036-84.333594A542.938653 542.938653 0 0 0 512 958.90295c68.754187 0 135.533521-12.653696 198.436288-37.302804a513.315838 513.315838 0 0 0 162.596339-102.180425 478.134174 478.134174 0 0 0 110.299271-152.429497c26.989676-59.391915 40.594228-122.367825 40.594228-187.464875a450.047357 450.047357 0 0 0-40.521085-187.61116z m-65.535906 345.233792a405.649706 405.649706 0 0 1-93.842152 129.462673 442.879367 442.879367 0 0 1-139.995229 87.844446A466.723905 466.723905 0 0 1 512 886.711053a470.161614 470.161614 0 0 1-152.210068-25.014821 35.986234 35.986234 0 0 0-29.403387 2.852567l-114.834122 65.243336-18.285688-154.696922a35.839949 35.839949 0 0 0-10.0937-21.065113C112.933142 678.83935 72.046343 581.266918 72.046343 479.379064c0-54.710779 11.483412-107.739275 34.157665-157.695775 22.015969-48.420502 53.540495-92.013583 93.842152-129.462672a442.879367 442.879367 0 0 1 139.995229-87.917589A467.894189 467.894189 0 0 1 512 71.973931a468.845045 468.845045 0 0 1 172.104897 32.329097 441.050798 441.050798 0 0 1 139.995229 87.844446c40.228514 37.522232 71.75304 81.04217 93.769008 129.462672a380.415457 380.415457 0 0 1-0.073142 315.39155z" fill="currentColor" p-id="23181"></path></svg>